<mxfile host="app.diagrams.net" modified="2022-04-15T11:51:51.273Z" agent="5.0 (Macintosh; Intel Mac OS X 10_15_7) AppleWebKit/605.1.15 (KHTML, like Gecko) Version/15.3 Safari/605.1.15" etag="ow6PiZJTalMH69GvjPAo" version="17.4.4" type="github">
  <diagram id="SsodIubV5SFTSGUtVNlf" name="Page-1">
    <mxGraphModel dx="946" dy="620" grid="1" gridSize="10" guides="1" tooltips="1" connect="1" arrows="1" fold="1" page="1" pageScale="1" pageWidth="1169" pageHeight="827" math="0" shadow="0">
      <root>
        <mxCell id="0" />
        <mxCell id="1" parent="0" />
        <mxCell id="dlntXyXqMN0Tj0HWEZaU-36" value="" style="edgeStyle=orthogonalEdgeStyle;rounded=0;orthogonalLoop=1;jettySize=auto;html=1;fontSize=12;strokeColor=default;entryX=0;entryY=0.5;entryDx=0;entryDy=0;" parent="1" source="dlntXyXqMN0Tj0HWEZaU-1" target="dlntXyXqMN0Tj0HWEZaU-7" edge="1">
          <mxGeometry relative="1" as="geometry" />
        </mxCell>
        <mxCell id="dlntXyXqMN0Tj0HWEZaU-1" value="" style="rounded=1;whiteSpace=wrap;html=1;strokeWidth=0.5;" parent="1" vertex="1">
          <mxGeometry x="160" y="220" width="80" height="80" as="geometry" />
        </mxCell>
        <mxCell id="dlntXyXqMN0Tj0HWEZaU-4" value="" style="sketch=0;outlineConnect=0;fontColor=#232F3E;gradientColor=none;fillColor=#3333FF;strokeColor=none;dashed=0;verticalLabelPosition=bottom;verticalAlign=top;align=center;html=1;fontSize=12;fontStyle=0;aspect=fixed;pointerEvents=1;shape=mxgraph.aws4.user;strokeWidth=0.5;" parent="1" vertex="1">
          <mxGeometry x="180" y="230" width="40" height="40" as="geometry" />
        </mxCell>
        <mxCell id="dlntXyXqMN0Tj0HWEZaU-5" value="&lt;span style=&quot;font-size: 15px&quot;&gt;User&lt;/span&gt;" style="text;html=1;strokeColor=none;fillColor=none;align=center;verticalAlign=middle;whiteSpace=wrap;rounded=0;" parent="1" vertex="1">
          <mxGeometry x="170" y="270" width="60" height="30" as="geometry" />
        </mxCell>
        <mxCell id="dlntXyXqMN0Tj0HWEZaU-6" value="" style="rounded=1;whiteSpace=wrap;html=1;fontSize=15;fillColor=none;strokeWidth=0.5;container=1;" parent="1" vertex="1">
          <mxGeometry x="280" y="190" width="690" height="430" as="geometry" />
        </mxCell>
        <mxCell id="dlntXyXqMN0Tj0HWEZaU-25" value="Mobile Device" style="text;html=1;strokeColor=none;fillColor=none;align=center;verticalAlign=middle;whiteSpace=wrap;rounded=0;fontSize=12;" parent="dlntXyXqMN0Tj0HWEZaU-6" vertex="1">
          <mxGeometry x="580" y="380.00111111111113" width="60" height="28.666666666666668" as="geometry" />
        </mxCell>
        <mxCell id="dlntXyXqMN0Tj0HWEZaU-24" value="" style="html=1;verticalLabelPosition=bottom;align=center;labelBackgroundColor=#ffffff;verticalAlign=top;strokeWidth=2;strokeColor=#0080F0;shadow=0;dashed=0;shape=mxgraph.ios7.icons.smartphone;fontSize=12;fillColor=default;" parent="dlntXyXqMN0Tj0HWEZaU-6" vertex="1">
          <mxGeometry x="560" y="380.00111111111113" width="18" height="28.666666666666668" as="geometry" />
        </mxCell>
        <mxCell id="dlntXyXqMN0Tj0HWEZaU-23" value="Local Server" style="text;html=1;strokeColor=none;fillColor=none;align=center;verticalAlign=middle;whiteSpace=wrap;rounded=0;fontSize=12;" parent="dlntXyXqMN0Tj0HWEZaU-6" vertex="1">
          <mxGeometry x="70" y="380" width="60" height="28.67" as="geometry" />
        </mxCell>
        <mxCell id="dlntXyXqMN0Tj0HWEZaU-21" value="" style="sketch=0;outlineConnect=0;fontColor=#232F3E;gradientColor=none;fillColor=#2E27AD;strokeColor=none;dashed=0;verticalLabelPosition=bottom;verticalAlign=top;align=center;html=1;fontSize=12;fontStyle=0;aspect=fixed;pointerEvents=1;shape=mxgraph.aws4.rds_sql_server_instance;" parent="dlntXyXqMN0Tj0HWEZaU-6" vertex="1">
          <mxGeometry x="40" y="380.00111111111113" width="28.666666666666668" height="28.666666666666668" as="geometry" />
        </mxCell>
        <mxCell id="dlntXyXqMN0Tj0HWEZaU-7" value="" style="rounded=1;whiteSpace=wrap;html=1;fontSize=15;strokeWidth=0.5;fillColor=#ffe6cc;strokeColor=none;" parent="1" vertex="1">
          <mxGeometry x="300" y="210" width="460" height="100" as="geometry" />
        </mxCell>
        <mxCell id="dlntXyXqMN0Tj0HWEZaU-8" value="" style="rounded=1;whiteSpace=wrap;html=1;fontSize=15;strokeWidth=0.5;fillColor=#dae8fc;strokeColor=#6c8ebf;" parent="1" vertex="1">
          <mxGeometry x="300" y="450" width="460" height="100" as="geometry" />
        </mxCell>
        <mxCell id="dlntXyXqMN0Tj0HWEZaU-9" value="" style="rounded=1;whiteSpace=wrap;html=1;fontSize=15;strokeWidth=0.5;fillColor=#fff2cc;strokeColor=#d6b656;" parent="1" vertex="1">
          <mxGeometry x="780" y="210" width="170" height="340" as="geometry" />
        </mxCell>
        <mxCell id="dlntXyXqMN0Tj0HWEZaU-12" value="" style="shape=image;html=1;verticalAlign=top;verticalLabelPosition=bottom;labelBackgroundColor=#ffffff;imageAspect=0;aspect=fixed;image=https://cdn1.iconfinder.com/data/icons/unicons-line-vol-5/24/presentation-check-128.png;fontSize=15;strokeWidth=0.5;fillColor=none;" parent="1" vertex="1">
          <mxGeometry x="320" y="240" width="40" height="40" as="geometry" />
        </mxCell>
        <mxCell id="dlntXyXqMN0Tj0HWEZaU-14" value="User Interface" style="rounded=1;whiteSpace=wrap;html=1;fontSize=12;strokeWidth=0.5;fillColor=default;strokeColor=none;" parent="1" vertex="1">
          <mxGeometry x="390" y="220" width="350" height="30" as="geometry" />
        </mxCell>
        <mxCell id="dlntXyXqMN0Tj0HWEZaU-15" value="Presentation Logic" style="rounded=1;whiteSpace=wrap;html=1;fontSize=12;strokeWidth=0.5;fillColor=default;strokeColor=none;" parent="1" vertex="1">
          <mxGeometry x="390" y="268" width="350" height="30" as="geometry" />
        </mxCell>
        <mxCell id="dlntXyXqMN0Tj0HWEZaU-16" style="edgeStyle=orthogonalEdgeStyle;rounded=0;orthogonalLoop=1;jettySize=auto;html=1;exitX=0.5;exitY=1;exitDx=0;exitDy=0;fontSize=15;strokeColor=default;" parent="1" source="dlntXyXqMN0Tj0HWEZaU-14" target="dlntXyXqMN0Tj0HWEZaU-14" edge="1">
          <mxGeometry relative="1" as="geometry" />
        </mxCell>
        <mxCell id="dlntXyXqMN0Tj0HWEZaU-17" value="Data Access" style="rounded=1;whiteSpace=wrap;html=1;fontSize=12;strokeWidth=0.5;fillColor=default;strokeColor=none;" parent="1" vertex="1">
          <mxGeometry x="390" y="461" width="350" height="30" as="geometry" />
        </mxCell>
        <mxCell id="dlntXyXqMN0Tj0HWEZaU-18" value="Data Utilities" style="rounded=1;whiteSpace=wrap;html=1;fontSize=12;strokeWidth=0.5;fillColor=default;strokeColor=none;" parent="1" vertex="1">
          <mxGeometry x="390" y="509" width="350" height="30" as="geometry" />
        </mxCell>
        <mxCell id="dlntXyXqMN0Tj0HWEZaU-19" value="&lt;span style=&quot;font-size: 15px&quot;&gt;View&lt;/span&gt;" style="text;html=1;strokeColor=none;fillColor=none;align=center;verticalAlign=middle;whiteSpace=wrap;rounded=0;" parent="1" vertex="1">
          <mxGeometry x="310" y="280" width="60" height="30" as="geometry" />
        </mxCell>
        <mxCell id="dlntXyXqMN0Tj0HWEZaU-20" value="&lt;span style=&quot;font-size: 15px&quot;&gt;Data&lt;/span&gt;" style="text;html=1;strokeColor=none;fillColor=none;align=center;verticalAlign=middle;whiteSpace=wrap;rounded=0;" parent="1" vertex="1">
          <mxGeometry x="310" y="519.1" width="60" height="30" as="geometry" />
        </mxCell>
        <mxCell id="dlntXyXqMN0Tj0HWEZaU-22" value="" style="aspect=fixed;html=1;points=[];align=center;image;fontSize=12;image=img/lib/azure2/databases/SQL_Database.svg;strokeWidth=0.5;fillColor=default;" parent="1" vertex="1">
          <mxGeometry x="325.75" y="481" width="28.5" height="38" as="geometry" />
        </mxCell>
        <mxCell id="dlntXyXqMN0Tj0HWEZaU-26" value="&lt;span style=&quot;font-size: 15px&quot;&gt;Common&lt;/span&gt;" style="text;html=1;strokeColor=none;fillColor=none;align=center;verticalAlign=middle;whiteSpace=wrap;rounded=0;rotation=-90;" parent="1" vertex="1">
          <mxGeometry x="770" y="365" width="60" height="30" as="geometry" />
        </mxCell>
        <mxCell id="dlntXyXqMN0Tj0HWEZaU-27" value="Configuration" style="rounded=1;whiteSpace=wrap;html=1;fontSize=12;strokeWidth=0.5;fillColor=default;strokeColor=none;rotation=-90;" parent="1" vertex="1">
          <mxGeometry x="677.5" y="368" width="302.5" height="26" as="geometry" />
        </mxCell>
        <mxCell id="dlntXyXqMN0Tj0HWEZaU-28" value="Security" style="rounded=1;whiteSpace=wrap;html=1;fontSize=12;strokeWidth=0.5;fillColor=default;strokeColor=none;rotation=-90;" parent="1" vertex="1">
          <mxGeometry x="720" y="368" width="302.5" height="26" as="geometry" />
        </mxCell>
        <mxCell id="dlntXyXqMN0Tj0HWEZaU-30" value="Communication" style="rounded=1;whiteSpace=wrap;html=1;fontSize=12;strokeWidth=0.5;fillColor=default;strokeColor=none;rotation=-90;" parent="1" vertex="1">
          <mxGeometry x="765" y="368" width="302.5" height="26" as="geometry" />
        </mxCell>
        <mxCell id="QgwUPah1BYvu5lVziW78-2" value="" style="rounded=1;whiteSpace=wrap;html=1;fontSize=15;strokeWidth=0.5;fillColor=#e1d5e7;strokeColor=#9673a6;" vertex="1" parent="1">
          <mxGeometry x="300" y="331" width="460" height="100" as="geometry" />
        </mxCell>
        <mxCell id="QgwUPah1BYvu5lVziW78-4" value="" style="shape=image;html=1;verticalAlign=top;verticalLabelPosition=bottom;labelBackgroundColor=#ffffff;imageAspect=0;aspect=fixed;image=https://cdn4.iconfinder.com/data/icons/internet-networking-and-communication-glyph-24/24/Hierarchy_networking_programming_process_sitemap_workflow-128.png" vertex="1" parent="1">
          <mxGeometry x="320" y="361" width="40" height="40" as="geometry" />
        </mxCell>
        <mxCell id="QgwUPah1BYvu5lVziW78-5" value="&lt;span style=&quot;font-size: 15px&quot;&gt;Business&lt;/span&gt;" style="text;html=1;strokeColor=none;fillColor=none;align=center;verticalAlign=middle;whiteSpace=wrap;rounded=0;" vertex="1" parent="1">
          <mxGeometry x="310" y="401" width="60" height="30" as="geometry" />
        </mxCell>
        <mxCell id="QgwUPah1BYvu5lVziW78-6" value="Application Facade" style="rounded=1;whiteSpace=wrap;html=1;fontSize=12;strokeWidth=0.5;fillColor=default;strokeColor=none;" vertex="1" parent="1">
          <mxGeometry x="390" y="340" width="350" height="30" as="geometry" />
        </mxCell>
        <mxCell id="QgwUPah1BYvu5lVziW78-7" value="Workflow" style="rounded=1;whiteSpace=wrap;html=1;fontSize=12;strokeWidth=0.5;fillColor=default;strokeColor=none;" vertex="1" parent="1">
          <mxGeometry x="390" y="390" width="110" height="30" as="geometry" />
        </mxCell>
        <mxCell id="QgwUPah1BYvu5lVziW78-8" value="Components" style="rounded=1;whiteSpace=wrap;html=1;fontSize=12;strokeWidth=0.5;fillColor=default;strokeColor=none;" vertex="1" parent="1">
          <mxGeometry x="510" y="390" width="110" height="30" as="geometry" />
        </mxCell>
        <mxCell id="QgwUPah1BYvu5lVziW78-9" value="Entities" style="rounded=1;whiteSpace=wrap;html=1;fontSize=12;strokeWidth=0.5;fillColor=default;strokeColor=none;" vertex="1" parent="1">
          <mxGeometry x="630" y="390" width="110" height="30" as="geometry" />
        </mxCell>
      </root>
    </mxGraphModel>
  </diagram>
</mxfile>
